<svg width="1200" height="630" viewBox="0 0 1200 630" xmlns="http://www.w3.org/2000/svg">
  <defs>
    <linearGradient id="bg" x1="0%" y1="0%" x2="100%" y2="100%">
      <stop offset="0%" style="stop-color:#3B82F6;stop-opacity:1" />
      <stop offset="100%" style="stop-color:#1E40AF;stop-opacity:1" />
    </linearGradient>
    <linearGradient id="heart" x1="0%" y1="0%" x2="100%" y2="100%">
      <stop offset="0%" style="stop-color:#EC4899;stop-opacity:1" />
      <stop offset="100%" style="stop-color:#DC2626;stop-opacity:1" />
    </linearGradient>
  </defs>
  
  <!-- Background -->
  <rect width="1200" height="630" fill="url(#bg)"/>
  
  <!-- Decorative circles -->
  <circle cx="100" cy="100" r="80" fill="rgba(255,255,255,0.1)"/>
  <circle cx="1100" cy="530" r="120" fill="rgba(255,255,255,0.1)"/>
  <circle cx="1000" cy="100" r="60" fill="rgba(255,255,255,0.1)"/>
  
  <!-- Main content area -->
  <rect x="150" y="150" width="900" height="330" rx="20" fill="rgba(255,255,255,0.95)"/>
  
  <!-- Heart icon -->
  <g transform="translate(200, 200)">
    <path d="M50,25 C50,25 35,10 25,10 C15,10 10,20 10,30 C10,40 25,55 50,75 C75,55 90,40 90,30 C90,20 85,10 75,10 C65,10 50,25 50,25 Z" fill="url(#heart)"/>
  </g>
  
  <!-- Title -->
  <text x="300" y="250" font-family="Arial, sans-serif" font-size="48" font-weight="bold" fill="#1F2937">
    Cuestionario de
  </text>
  <text x="300" y="310" font-family="Arial, sans-serif" font-size="48" font-weight="bold" fill="#3B82F6">
    Compatibilidad de Pareja
  </text>
  
  <!-- Subtitle -->
  <text x="300" y="380" font-family="Arial, sans-serif" font-size="24" fill="#6B7280">
    Test psicológico científicamente diseñado
  </text>
  
  <!-- Features -->
  <g transform="translate(300, 420)">
    <circle cx="15" cy="15" r="15" fill="#3B82F6"/>
    <text x="25" y="22" font-family="Arial, sans-serif" font-size="16" fill="white">✓</text>
    <text x="50" y="22" font-family="Arial, sans-serif" font-size="16" fill="#374151">18 preguntas científicas</text>
  </g>
  
  <g transform="translate(300, 460)">
    <circle cx="15" cy="15" r="15" fill="#10B981"/>
    <text x="25" y="22" font-family="Arial, sans-serif" font-size="16" fill="white">✓</text>
    <text x="50" y="22" font-family="Arial, sans-serif" font-size="16" fill="#374151">Resultados personalizados</text>
  </g>
  
  <g transform="translate(300, 500)">
    <circle cx="15" cy="15" r="15" fill="#F59E0B"/>
    <text x="25" y="22" font-family="Arial, sans-serif" font-size="16" fill="white">✓</text>
    <text x="50" y="22" font-family="Arial, sans-serif" font-size="16" fill="#374151">100% confidencial</text>
  </g>
  
  <!-- Logo -->
  <text x="1000" y="580" font-family="Arial, sans-serif" font-size="24" font-weight="bold" fill="white">
    Love on the Brain
  </text>
</svg>
